<svg width="72" height="86" viewBox="0 0 72 86" fill="none" xmlns="http://www.w3.org/2000/svg">
<path d="M3.83095 1.66489C3.91579 0.834609 3.31148 0.0927642 2.4812 0.00792976C1.65092 -0.0769037 0.909078 0.5274 0.824245 1.35768L3.83095 1.66489ZM71.8025 73.3735C72.2147 72.6478 71.9605 71.7253 71.2347 71.3132L59.4083 64.5967C58.6825 64.1845 57.7601 64.4387 57.3479 65.1645C56.9358 65.8902 57.19 66.8126 57.9157 67.2248L68.4281 73.195L62.4579 83.7074C62.0458 84.4332 62.3 85.3556 63.0257 85.7678C63.7514 86.1799 64.6739 85.9257 65.086 85.2L71.8025 73.3735ZM0.824245 1.35768C-1.4821 23.9302 0.755709 46.2464 11.3225 60.9032C16.6396 68.2782 24.0434 73.6781 33.9187 76.1627C43.7625 78.6394 55.966 78.1968 70.8899 74.0841L70.087 71.1704C55.4935 75.192 43.8443 75.5434 34.6561 73.2317C25.4993 70.9278 18.6918 65.9567 13.7742 59.1356C3.87157 45.4002 1.5464 24.0241 3.83095 1.66489L0.824245 1.35768Z" fill="#E15544"/>
</svg>
