<svg width="26" height="59" viewBox="0 0 26 59" fill="none" xmlns="http://www.w3.org/2000/svg">
<path d="M24.6842 2.9815C25.5022 2.85098 26.0596 2.08199 25.9291 1.26392C25.7986 0.445838 25.0296 -0.11154 24.2115 0.0189772L24.6842 2.9815ZM16.5595 58.9923C17.3837 59.076 18.1196 58.4757 18.2033 57.6515L19.5669 44.2206C19.6506 43.3964 19.0503 42.6605 18.2261 42.5768C17.4019 42.4931 16.666 43.0934 16.5823 43.9176L15.3702 55.8562L3.43161 54.6441C2.60743 54.5604 1.87146 55.1607 1.78778 55.9849C1.7041 56.8091 2.3044 57.545 3.12859 57.6287L16.5595 58.9923ZM24.2115 0.0189772C15.0388 1.4824 8.77082 4.6656 4.89573 9.10716C1.00445 13.5673 -0.302162 19.0986 0.0569779 24.8868C0.768377 36.3523 8.0239 49.2228 15.5486 58.4481L17.8734 56.5519C10.4984 47.5102 3.70508 35.2393 3.05121 24.701C2.72771 19.4873 3.90935 14.801 7.15629 11.0794C10.4194 7.33927 15.9396 4.37661 24.6842 2.9815L24.2115 0.0189772Z" fill="#E15544"/>
</svg>
